<?xml version="1.0" standalone="no"?>
<!DOCTYPE svg PUBLIC "-//W3C//DTD SVG 20010904//EN"
 "http://www.w3.org/TR/2001/REC-SVG-20010904/DTD/svg10.dtd">
<svg version="1.0" xmlns="http://www.w3.org/2000/svg"
 width="376.000000pt" height="376.000000pt" viewBox="0 0 376.000000 376.000000"
 preserveAspectRatio="xMidYMid meet">
<metadata>
Created by potrace 1.11, written by Peter Selinger 2001-2013
</metadata>
<g transform="translate(0.000000,376.000000) scale(0.100000,-0.100000)"
fill="#000000" stroke="none">
<path d="M1608 3033 c-150 -108 -343 -247 -428 -308 -85 -61 -333 -239 -550
-395 -594 -426 -619 -444 -617 -452 1 -3 83 -64 182 -135 222 -160 619 -445
1217 -875 251 -180 462 -328 468 -328 6 0 57 33 113 73 56 41 368 264 692 497
325 233 613 440 640 460 57 43 282 204 368 264 31 22 57 42 57 45 0 3 -82 65
-182 136 -100 72 -238 171 -307 221 -69 50 -272 195 -451 324 -179 128 -343
246 -365 262 -22 16 -110 79 -195 140 -85 61 -203 146 -262 189 l-107 78 -273
-196z m324 74 c24 -18 113 -82 198 -143 85 -61 211 -151 280 -201 69 -49 271
-195 450 -323 179 -129 363 -261 409 -294 96 -70 131 -95 265 -190 53 -37 96
-72 94 -77 -2 -5 -185 -140 -408 -300 -223 -159 -412 -295 -420 -302 -18 -15
-356 -256 -387 -277 -12 -8 -134 -96 -270 -194 -136 -99 -255 -180 -263 -180
-13 0 -165 108 -685 482 -49 36 -223 160 -385 277 -580 416 -680 489 -680 495
0 6 337 249 1110 803 146 105 288 207 315 227 160 118 319 230 325 230 5 0 28
-15 52 -33z"/>
<path d="M1542 2195 l0 -215 53 0 c43 0 60 5 82 24 l28 24 3 161 3 161 -30 30
c-25 26 -37 30 -84 30 l-54 0 -1 -215z m126 175 c24 -22 24 -23 24 -185 0
-147 1 -138 -22 -163 -15 -16 -32 -22 -65 -22 l-45 0 1 54 c1 29 -2 59 -5 65
-4 6 -3 11 2 11 5 0 7 12 5 28 -2 15 -4 32 -4 37 0 6 1 52 2 103 l1 92 42 0
c29 0 49 -7 64 -20z"/>
<path d="M1837 2328 c-10 -46 -20 -94 -23 -108 -2 -14 -15 -71 -28 -128 -13
-56 -20 -105 -15 -107 4 -3 14 23 21 57 l14 63 57 3 56 3 9 -38 c6 -21 13 -50
16 -65 4 -16 11 -28 17 -28 6 0 8 4 5 9 -3 5 -8 26 -11 47 -3 22 -8 46 -11 54
-3 8 -8 26 -11 40 -3 14 -6 30 -7 35 -2 6 -6 28 -10 50 -5 22 -14 63 -21 90
-7 28 -16 62 -19 78 -10 45 -21 31 -39 -55z m49 -66 c3 -20 10 -46 15 -59 5
-14 9 -35 9 -49 0 -22 -4 -24 -50 -24 -49 0 -49 0 -40 25 5 14 8 25 5 25 -2 0
1 15 6 33 5 17 12 46 15 62 6 30 11 56 14 65 3 10 21 -44 26 -78z"/>
<path d="M2005 2200 c0 -131 4 -209 10 -207 6 1 10 70 10 174 -1 94 3 169 7
167 4 -3 8 -10 8 -16 0 -5 6 -24 14 -41 13 -32 25 -61 87 -214 19 -46 37 -83
40 -83 3 0 6 97 6 215 0 118 -4 215 -8 215 -5 0 -10 -80 -11 -177 -3 -177 -3
-178 -20 -144 -10 19 -18 42 -18 51 0 9 -3 20 -6 23 -8 7 -53 114 -59 137 -7
29 -46 110 -53 110 -4 0 -7 -94 -7 -210z"/>
<path d="M1122 1881 c3 -14 79 -16 761 -17 690 -1 758 0 755 15 -3 14 -74 16
-761 17 -685 0 -758 -1 -755 -15z"/>
<path d="M1227 1749 c-45 -26 -58 -118 -23 -171 9 -15 35 -34 58 -42 43 -18
68 -38 68 -55 0 -6 4 -11 9 -11 10 0 5 -49 -9 -86 -11 -28 -52 -41 -89 -28
-20 7 -28 19 -35 52 -12 52 -29 56 -22 5 18 -119 168 -103 174 18 3 56 -21 91
-84 121 -55 25 -74 51 -74 99 0 49 32 89 71 89 35 0 69 -31 69 -64 0 -14 5
-28 10 -31 15 -9 12 39 -5 71 -21 41 -77 57 -118 33z"/>
<path d="M1402 1550 c0 -115 3 -212 8 -215 5 -3 9 30 9 72 0 137 -8 123 66
123 l65 0 0 -100 c0 -55 4 -100 9 -100 6 0 9 89 8 215 0 118 -4 215 -9 215 -4
0 -8 -47 -8 -105 l0 -105 -65 0 -65 0 0 105 c0 58 -4 105 -9 105 -4 0 -8 -94
-9 -210z"/>
<path d="M1710 1758 c0 -4 -7 -40 -16 -80 -8 -40 -17 -81 -19 -91 -2 -10 -6
-26 -9 -35 -3 -9 -7 -29 -10 -45 -3 -15 -7 -35 -10 -45 -3 -9 -7 -28 -10 -42
-3 -14 -8 -40 -12 -57 -4 -20 -3 -33 3 -33 6 0 14 19 18 43 5 23 9 45 10 50 1
4 3 14 4 22 1 12 15 15 61 15 46 0 60 -3 61 -15 1 -8 2 -18 4 -22 1 -5 5 -25
9 -46 5 -20 13 -40 19 -44 9 -6 7 14 -9 87 -12 55 -14 66 -19 85 -13 55 -36
155 -44 193 -7 36 -31 82 -31 60z m17 -74 c-3 -3 -1 -18 5 -33 5 -14 12 -37
15 -51 2 -14 8 -43 13 -65 5 -22 10 -43 10 -47 0 -5 -23 -8 -51 -8 -43 0 -50
2 -45 18 3 9 8 31 11 47 8 37 26 116 31 133 2 6 7 12 10 12 4 0 5 -3 1 -6z"/>
<path d="M1867 1753 c-3 -7 -1 -392 2 -416 1 -5 4 -6 9 -4 4 3 7 51 6 106 l0
101 49 0 c40 0 53 5 77 29 25 24 29 36 28 81 0 45 -4 58 -28 82 -24 24 -36 28
-84 28 -30 0 -56 -3 -59 -7z m129 -27 c16 -11 21 -27 23 -68 3 -74 -22 -100
-87 -96 l-47 3 -1 88 0 87 46 0 c25 0 55 -6 66 -14z"/>
<path d="M2090 1545 c0 -118 4 -215 9 -215 5 0 8 97 8 215 0 118 -4 215 -9
215 -4 0 -8 -97 -8 -215z"/>
<path d="M2150 1545 c0 -137 4 -215 10 -215 6 0 10 40 10 100 l0 100 44 0 c28
0 52 -7 67 -19 23 -19 25 -27 28 -153 1 -16 5 -28 9 -28 5 0 8 35 6 78 -2 97
0 88 -24 112 l-20 20 20 22 c11 12 21 32 21 45 1 13 2 31 2 41 3 76 -37 112
-123 112 l-50 0 0 -215z m131 176 c19 -15 23 -27 22 -75 -1 -75 -19 -96 -85
-96 l-48 0 0 95 0 95 44 0 c28 0 52 -7 67 -19z"/>
<path d="M2414 1745 c-38 -26 -45 -62 -42 -219 l3 -148 28 -24 c15 -13 40 -24
54 -24 39 0 80 30 87 63 11 56 7 292 -6 320 -22 45 -84 61 -124 32z m96 -27
c18 -20 20 -35 20 -175 0 -140 -2 -155 -20 -173 -27 -27 -74 -26 -100 2 -23
25 -22 14 -21 180 0 156 12 188 73 188 15 0 36 -10 48 -22z"/>
</g>
</svg>
