<?xml version="1.0" standalone="no"?>
<!DOCTYPE svg PUBLIC "-//W3C//DTD SVG 20010904//EN"
 "http://www.w3.org/TR/2001/REC-SVG-20010904/DTD/svg10.dtd">
<svg version="1.0" xmlns="http://www.w3.org/2000/svg"
 width="260.000000pt" height="260.000000pt" viewBox="0 0 260.000000 260.000000"
 preserveAspectRatio="xMidYMid meet">
<metadata>
Created by potrace 1.11, written by Peter Selinger 2001-2013
</metadata>
<g transform="translate(0.000000,260.000000) scale(0.100000,-0.100000)"
fill="#000000" stroke="none">
<path d="M0 1295 l0 -1295 1300 0 1300 0 0 1295 0 1295 -1300 0 -1300 0 0
-1295z m2480 0 l0 -1175 -1180 0 -1180 0 0 1175 0 1175 1180 0 1180 0 0 -1175z"/>
<path d="M490 2177 c-47 -27 -60 -42 -91 -103 -19 -39 -52 -86 -73 -104 -20
-18 -47 -52 -59 -74 -21 -40 -22 -49 -19 -311 2 -148 7 -340 11 -425 7 -146 9
-159 37 -209 16 -30 43 -63 60 -74 26 -17 32 -30 41 -81 25 -142 99 -271 196
-342 200 -147 456 -66 574 183 26 53 46 127 81 295 l46 225 24 -29 24 -28 195
0 c109 0 193 -4 191 -9 -1 -5 -28 -57 -58 -116 l-55 -107 0 -96 c0 -89 3 -103
32 -162 95 -194 298 -274 502 -198 80 30 180 131 210 213 50 132 38 232 -44
378 -55 97 -55 97 -35 117 26 26 35 66 22 95 -8 17 -8 32 0 54 9 22 9 36 0 56
-8 18 -9 32 -2 45 17 31 11 67 -14 98 l-25 29 49 84 c64 111 84 183 77 271
-18 217 -198 370 -417 355 -142 -9 -253 -84 -316 -212 -67 -135 -58 -249 30
-405 l54 -94 -25 -30 c-20 -24 -24 -37 -19 -65 7 -45 7 -47 0 -93 l-6 -38
-167 0 c-138 0 -171 -3 -190 -16 -22 -16 -23 -16 -18 2 3 11 34 154 68 319 51
250 61 312 57 370 -7 108 -64 202 -150 246 -35 18 -62 19 -391 19 l-353 0 -54
-33z m765 -169 c41 -36 45 -79 19 -209 -129 -639 -215 -1035 -234 -1073 -48
-101 -136 -160 -235 -160 -114 0 -204 75 -248 208 -22 65 -21 93 3 106 24 13
68 86 82 136 15 55 -8 772 -27 839 -8 29 -31 70 -52 94 l-37 44 23 18 c22 18
46 19 352 19 326 0 328 0 354 -22z m1071 -149 c10 -73 -11 -146 -74 -255 -55
-95 -59 -99 -94 -102 l-36 -3 64 113 c74 129 89 173 80 240 -6 44 -5 49 16 57
30 12 37 4 44 -50z m-263 20 c27 -33 21 -81 -19 -151 -21 -35 -39 -65 -41 -67
-5 -7 -28 28 -63 95 -30 60 -31 63 -16 98 8 20 25 41 38 46 33 14 80 4 101
-21z m142 -83 c-5 -37 -122 -256 -135 -256 -4 0 -13 12 -20 26 -13 23 -12 30
4 57 65 112 89 164 91 195 2 25 9 38 26 48 21 11 25 10 32 -9 5 -12 6 -40 2
-61z m35 -371 c10 -12 10 -18 0 -30 -10 -13 -50 -15 -240 -15 -190 0 -230 2
-240 15 -10 12 -10 18 0 30 10 13 50 15 240 15 190 0 230 -2 240 -15z m4 -114
c4 -5 3 -16 0 -25 -5 -14 -36 -16 -244 -16 -240 0 -259 3 -246 35 4 13 45 15
245 15 133 0 242 -4 245 -9z m0 -117 c3 -9 4 -20 0 -25 -3 -5 -191 -9 -445 -9
-419 0 -439 1 -439 18 0 10 3 22 7 25 3 4 201 7 439 7 386 0 433 -2 438 -16z
m-374 -103 c0 -5 -29 -59 -64 -120 -68 -119 -82 -165 -71 -236 5 -38 3 -45
-16 -55 -29 -16 -39 -3 -46 62 -6 56 14 148 41 192 8 12 32 54 55 94 37 64 45
72 71 72 17 0 30 -4 30 -9z m140 2 c0 -4 -34 -67 -76 -141 -45 -79 -78 -150
-81 -173 -4 -26 -13 -44 -26 -50 -27 -15 -39 5 -34 58 5 46 21 79 104 220 49
84 57 93 84 93 16 0 29 -3 29 -7z m34 -229 c44 -75 48 -115 15 -150 -30 -32
-87 -33 -116 -1 -38 41 -37 61 7 142 23 41 45 75 49 75 4 0 24 -30 45 -66z"/>
</g>
</svg>
