<?xml version="1.0" standalone="no"?>
<!DOCTYPE svg PUBLIC "-//W3C//DTD SVG 20010904//EN"
 "http://www.w3.org/TR/2001/REC-SVG-20010904/DTD/svg10.dtd">
<svg version="1.0" xmlns="http://www.w3.org/2000/svg"
 width="260.000000pt" height="260.000000pt" viewBox="0 0 260.000000 260.000000"
 preserveAspectRatio="xMidYMid meet">
<metadata>
Created by potrace 1.11, written by Peter Selinger 2001-2013
</metadata>
<g transform="translate(0.000000,260.000000) scale(0.100000,-0.100000)"
fill="#000000" stroke="none">
<path d="M0 1295 l0 -1295 1300 0 1300 0 0 1295 0 1295 -1300 0 -1300 0 0
-1295z m2480 5 l0 -1180 -1180 0 -1180 0 0 1180 0 1180 1180 0 1180 0 0 -1180z"/>
<path d="M515 2191 c-52 -24 -99 -74 -125 -133 -11 -27 -43 -70 -70 -97 -81
-81 -83 -94 -70 -518 5 -197 13 -378 16 -403 8 -59 49 -134 88 -161 28 -19 34
-32 49 -103 33 -163 131 -302 255 -363 49 -24 69 -28 147 -28 114 0 179 28
264 112 93 93 123 166 178 436 l47 228 24 -31 23 -30 195 0 c107 0 194 -4 194
-8 0 -5 -22 -49 -50 -98 -77 -137 -88 -240 -40 -367 28 -74 113 -167 184 -202
224 -109 488 11 551 251 30 114 12 203 -69 343 -46 81 -46 81 -26 101 26 26
35 66 22 95 -8 17 -8 32 0 54 9 22 9 36 0 55 -8 19 -9 34 -1 53 12 33 4 71
-22 99 -20 21 -20 21 24 95 67 114 82 161 82 259 0 74 -4 93 -32 152 -102 217
-365 293 -568 164 -135 -87 -204 -269 -160 -422 9 -32 39 -97 65 -143 l49 -84
-25 -29 c-24 -29 -31 -71 -16 -96 5 -7 4 -32 -2 -57 l-11 -45 -165 0 c-135 0
-170 -3 -188 -16 -22 -15 -23 -15 -17 8 3 12 33 156 66 318 49 236 60 308 56
360 -7 114 -66 211 -152 251 -37 17 -70 19 -385 19 -315 0 -348 -2 -385 -19z
m738 -181 c57 -45 57 -44 -68 -650 -63 -307 -121 -576 -130 -599 -44 -127
-162 -212 -271 -197 -119 16 -222 128 -241 262 -5 37 -2 44 19 58 29 19 67 84
79 135 14 56 -9 775 -26 836 -8 29 -30 69 -52 94 l-37 44 23 18 c22 18 46 19
351 19 315 0 328 -1 353 -20z m825 5 c78 -33 126 -106 126 -196 1 -50 -5 -66
-63 -167 -36 -62 -69 -111 -75 -109 -6 2 -15 15 -20 28 -7 21 1 42 45 119 44
77 54 103 53 138 -2 106 -121 173 -213 121 -41 -23 -81 -84 -81 -125 0 -27 37
-102 108 -221 l61 -103 -37 0 c-37 0 -37 0 -110 129 -80 141 -91 179 -72 245
34 121 165 187 278 141z m248 -152 c10 -80 -8 -141 -74 -260 -56 -101 -57
-103 -94 -103 l-37 0 44 75 c89 151 98 174 99 254 1 64 4 75 21 82 32 12 33
11 41 -48z m-284 36 c25 -13 50 -72 41 -96 -10 -29 -77 -143 -83 -143 -3 0
-25 34 -49 75 -34 60 -41 81 -36 105 12 55 77 86 127 59z m198 -474 c10 -12
10 -18 0 -30 -11 -13 -47 -15 -243 -13 -208 3 -231 5 -241 21 -8 14 -8 20 4
27 8 5 115 10 241 10 189 0 229 -2 239 -15z m5 -130 c0 -19 -8 -20 -239 -23
-142 -1 -244 2 -249 7 -5 5 -7 17 -4 26 6 13 35 15 249 13 235 -3 243 -4 243
-23z m0 -110 c0 -20 -8 -20 -442 -23 -425 -2 -443 -1 -443 16 0 10 3 22 7 25
3 4 203 6 442 5 428 -3 436 -3 436 -23z m-383 -117 c-113 -189 -138 -252 -128
-330 6 -41 4 -48 -15 -58 -31 -17 -40 -2 -46 72 -6 82 10 131 81 252 55 93 58
96 92 96 l36 0 -20 -32z m148 23 c0 -5 -35 -69 -77 -143 -68 -116 -78 -139
-77 -180 1 -81 60 -138 144 -138 62 0 106 29 131 86 26 58 20 85 -45 199 -50
87 -52 91 -36 117 8 16 17 28 20 28 3 0 34 -53 70 -118 58 -105 65 -123 65
-172 -2 -217 -287 -282 -388 -90 -47 90 -39 127 79 328 49 83 57 92 84 92 17
0 30 -4 30 -9z m38 -231 c46 -86 47 -106 9 -147 -27 -30 -89 -31 -117 -3 -37
37 -35 63 12 149 23 45 45 81 48 81 3 0 24 -36 48 -80z"/>
</g>
</svg>
